<svg width="884" height="936" viewBox="0 0 884 936" fill="none" xmlns="http://www.w3.org/2000/svg">
<path fill-rule="evenodd" clip-rule="evenodd" d="M368.884 258.415L441.476 185.823L556.993 301.341L441.476 416.858L326.063 301.446L355.729 271.78L441.476 357.526L497.661 301.341L441.476 245.155L428.216 258.415L472.131 302.33L442.465 331.996L368.884 258.415Z" fill="black"/>
<path fill-rule="evenodd" clip-rule="evenodd" d="M314.208 314.761L442.187 442.717L570.243 314.771L729.162 473.69L699.496 503.355L570.231 374.09L442.177 502.034L314.211 374.09L185.142 503.159L155.477 473.493L314.208 314.761Z" fill="#D9B042"/>
<path fill-rule="evenodd" clip-rule="evenodd" d="M314.208 396.771L442.181 524.723L570.155 396.771L687.386 514.003L569.742 631.647L498.733 556.646L570.999 484.38L600.665 514.046L557.265 557.446L570.564 571.493L628.054 514.003L570.152 456.101L442.181 584.05L314.21 456.101L256.308 514.003L313.798 571.493L327.097 557.446L283.698 514.046L313.363 484.38L385.629 556.646L314.62 631.647L196.977 514.003L314.208 396.771Z" fill="black"/>
<path fill-rule="evenodd" clip-rule="evenodd" d="M376.135 598.278L401.761 572.647L442.181 613.06L482.602 572.647L508.228 598.278L442.181 664.313L376.135 598.278Z" fill="black"/>
<path fill-rule="evenodd" clip-rule="evenodd" d="M329.977 641.672L359.64 612.003L442.182 694.531L524.724 612.003L554.387 641.672L442.182 753.858L329.977 641.672Z" fill="black"/>
<path d="M29.8322 602.288C34.315 600.607 38.6437 599.879 42.8182 600.104C47.0487 600.307 50.9569 601.271 54.5429 602.994C58.1289 604.718 61.2665 607.121 63.9558 610.203C66.7011 613.264 68.83 616.812 70.3425 620.846C71.5399 624.04 72.2925 626.986 72.6004 629.682C72.9293 632.435 73.0377 634.855 72.9254 636.942C72.806 639.352 72.4976 641.512 72.0001 643.424L53.1416 640.428C53.4779 639.279 53.7547 638.057 53.972 636.762C54.0632 635.641 54.0528 634.335 53.9409 632.843C53.906 631.386 53.5735 629.817 52.9433 628.136C52.2921 626.399 51.3852 624.917 50.2226 623.691C49.0601 622.465 47.7364 621.492 46.2516 620.77C44.7878 620.105 43.2119 619.737 41.5238 619.666C39.8919 619.575 38.2634 619.834 36.6383 620.443C35.0133 621.053 33.5878 621.938 32.362 623.101C31.2132 624.299 30.3165 625.657 29.6719 627.177C29.0274 628.697 28.6805 630.329 28.6313 632.073C28.5821 633.817 28.8936 635.586 29.5658 637.379C30.238 639.172 31.0608 640.685 32.0343 641.918C33.0078 643.151 33.9532 644.138 34.8707 644.881C35.9072 645.771 37.0033 646.478 38.1589 647.004L25.9176 661.659C24.1176 660.608 22.3527 659.224 20.6228 657.508C19.1661 656.009 17.6289 654.125 16.0111 651.855C14.3934 649.586 12.9753 646.826 11.757 643.576C10.1184 639.205 9.3064 634.908 9.32086 630.684C9.39135 626.44 10.2113 622.489 11.7806 618.833C13.3499 615.177 15.6441 611.921 18.6632 609.063C21.7384 606.185 25.4614 603.926 29.8322 602.288Z" fill="black"/>
<path d="M124.867 720.911L138.507 736.41C141.037 739.286 142.987 742.272 144.359 745.37C145.769 748.513 146.524 751.636 146.623 754.737C146.722 757.839 146.105 760.853 144.774 763.778C143.527 766.709 141.488 769.42 138.658 771.911C136.411 773.887 134.225 775.253 132.099 776.008C129.973 776.763 128.058 777.213 126.352 777.358C124.394 777.488 122.516 777.347 120.719 776.935L113.306 798.405L98.4806 781.558L103.939 764.797L92.5504 774.819L79.9191 760.465L124.867 720.911ZM115.395 754.716L116.047 755.457C117.55 757.164 119.197 758.266 120.988 758.762C122.819 759.303 124.634 758.783 126.431 757.201C128.228 755.62 128.974 753.887 128.671 752.001C128.406 750.161 127.523 748.388 126.021 746.68L125.369 745.939L115.395 754.716Z" fill="black"/>
<path d="M249.171 826.653L261.84 833.42L253.666 896.932L237.038 888.051L237.833 882.37L221.839 873.828L217.559 877.648L200.932 868.767L249.171 826.653ZM239.616 868.362L241 857.195L232.489 864.556L239.616 868.362Z" fill="black"/>
<path d="M373.581 870.157L379.846 897.384L393.742 873.109L414.437 876.139L382.67 932L367.304 929.75L352.886 867.126L373.581 870.157Z" fill="black"/>
<path d="M503.358 871.362L523.327 867.78L533.899 926.713L513.93 930.295L503.358 871.362Z" fill="black"/>
<path d="M612.919 838.658L626.677 831.076L652.278 843.308L641.142 823.104L657.573 814.048L686.473 866.486L672.636 874.111L647.157 861.914L658.249 882.04L641.818 891.096L612.919 838.658Z" fill="black"/>
<path d="M772.428 736.506C771.003 736.722 769.59 737.299 768.189 738.235C766.742 739.133 765.521 740.181 764.527 741.378C763.417 742.712 762.657 744.142 762.245 745.667C761.787 747.155 761.651 748.676 761.837 750.231C762.015 751.702 762.511 753.165 763.325 754.619C764.139 756.074 765.237 757.375 766.617 758.523C767.998 759.671 769.497 760.488 771.115 760.977C772.732 761.465 774.341 761.635 775.942 761.488C777.498 761.302 779.006 760.844 780.469 760.114C781.924 759.3 783.206 758.226 784.315 756.891C785.616 755.326 786.479 753.632 786.906 751.808C787.287 749.945 787.284 748.076 786.899 746.199L783.456 750.341L773.792 742.308L788.538 724.567L803.863 737.305C804.87 739.931 805.544 742.631 805.885 745.405C806.18 748.14 806.114 750.887 805.689 753.646C805.301 756.359 804.527 759.022 803.366 761.637C802.204 764.251 800.687 766.686 798.812 768.941C796.058 772.254 792.836 774.867 789.145 776.78C785.454 778.693 781.609 779.855 777.61 780.266C773.649 780.631 769.66 780.234 765.644 779.074C761.666 777.869 757.974 775.851 754.568 773.02C751.254 770.266 748.622 767.066 746.671 763.422C744.72 759.777 743.524 756.02 743.082 752.151C742.633 748.198 742.973 744.278 744.102 740.392C745.223 736.422 747.161 732.78 749.915 729.466C752.057 726.889 754.165 724.867 756.24 723.401C758.315 721.935 760.21 720.825 761.925 720.072C763.924 719.165 765.781 718.569 767.497 718.284L772.428 736.506Z" fill="black"/>
<path d="M852.146 641.495C852.984 640.396 853.756 639.211 854.465 637.939C855.149 636.912 855.827 635.724 856.499 634.376C857.192 632.971 857.8 631.536 858.323 630.07C859.248 627.478 858.753 625.84 856.837 625.155C856.104 624.894 855.231 625.027 854.216 625.554C853.146 626.061 851.938 626.774 850.594 627.692C849.213 628.533 847.707 629.457 846.077 630.464C844.467 631.414 842.708 632.247 840.8 632.964C838.912 633.624 836.925 634.027 834.84 634.172C832.698 634.297 830.444 633.937 828.077 633.092C825.428 632.146 823.26 630.832 821.574 629.149C819.887 627.466 818.669 625.538 817.92 623.365C817.171 621.191 816.861 618.856 816.99 616.36C817.082 613.788 817.591 611.205 818.517 608.613C819 607.26 819.567 605.938 820.219 604.646C820.815 603.333 821.36 602.162 821.855 601.131C822.467 599.952 823.069 598.8 823.661 597.677L839.469 603.322C839.252 603.753 839.015 604.24 838.757 604.783C838.54 605.214 838.302 605.701 838.045 606.245C837.787 606.788 837.547 607.37 837.326 607.99C837.205 608.328 837.083 608.761 836.958 609.288C836.777 609.795 836.662 610.294 836.614 610.786C836.565 611.277 836.622 611.742 836.783 612.18C836.944 612.619 837.278 612.929 837.785 613.11C838.236 613.271 838.931 613.106 839.869 612.615C840.827 612.067 841.948 611.419 843.232 610.67C844.536 609.865 846.011 609.026 847.658 608.152C849.324 607.222 851.109 606.493 853.013 605.966C854.938 605.382 856.989 605.066 859.166 605.017C861.364 604.913 863.647 605.283 866.014 606.128C868.494 607.013 870.692 608.243 872.608 609.817C874.468 611.371 875.913 613.285 876.944 615.559C877.938 617.757 878.424 620.313 878.4 623.228C878.432 626.162 877.814 629.405 876.547 632.956C875.782 635.097 874.955 637.058 874.065 638.837C873.252 640.58 872.453 642.106 871.668 643.414C870.803 644.948 869.931 646.321 869.054 647.532L852.146 641.495Z" fill="black"/>
<path d="M162.347 89.4766L181.835 78.0929L217.66 95.1857L220.259 55.649L239.747 44.2654L282.889 118.123L259.303 131.899L243.78 105.324L241.657 136.267L213.551 122.982L229.074 149.557L205.488 163.334L162.347 89.4766Z" fill="black"/>
<path d="M316.192 17.9934L344.304 11.3276L363.977 94.2957L335.865 100.961L316.192 17.9934Z" fill="black"/>
<path d="M419.457 86.2323L422.023 0.698242L445.747 1.40996C453.783 1.65104 460.895 2.76286 467.082 4.7454C473.355 6.73052 478.574 9.58251 482.741 13.3014C486.993 17.0228 490.15 21.6099 492.211 27.0625C494.361 32.4322 495.33 38.6222 495.12 45.6325C494.909 52.6428 493.569 58.8063 491.1 64.123C488.718 69.3568 485.293 73.7036 480.825 77.1634C476.443 80.6258 471.06 83.2025 464.678 84.8935C458.383 86.5016 451.217 87.1851 443.181 86.944L419.457 86.2323ZM447.503 62.6867C453.915 62.8791 458.918 61.5317 462.513 58.6447C466.11 55.6722 468.003 51.0655 468.19 44.8246C468.377 38.5837 466.763 33.9146 463.348 30.8173C459.932 27.7199 455.019 26.0751 448.607 25.8827L447.503 62.6867Z" fill="black"/>
<path d="M592.54 25.7884L611.878 32.6476L613.861 124.107L588.481 115.104L588.394 106.909L563.98 98.2496L558.749 104.558L533.369 95.5554L592.54 25.7884ZM587.928 86.7423L587.505 70.6727L577.05 82.884L587.928 86.7423Z" fill="black"/>
<path d="M670.98 127.571C672.132 129.174 673.429 130.724 674.871 132.223C675.988 133.587 677.327 135.009 678.889 136.49C680.52 138.023 682.227 139.452 684.01 140.779C687.166 143.125 689.611 143.133 691.346 140.8C692.009 139.909 692.192 138.66 691.895 137.054C691.649 135.379 691.179 133.432 690.486 131.212C689.913 128.974 689.279 126.532 688.585 123.884C687.959 121.288 687.555 118.536 687.372 115.63C687.258 112.775 687.537 109.893 688.209 106.984C688.933 104.006 690.366 101.076 692.508 98.195C694.906 94.9709 697.607 92.5578 700.61 90.9556C703.613 89.3534 706.755 88.4944 710.038 88.3786C713.32 88.2629 716.639 88.8138 719.996 90.0314C723.471 91.2314 726.787 93.0049 729.942 95.3518C731.589 96.5763 733.159 97.9037 734.652 99.334C736.196 100.696 737.569 101.93 738.77 103.036C740.127 104.365 741.448 105.667 742.736 106.945L728.425 126.186C727.927 125.71 727.361 125.182 726.726 124.603C726.228 124.126 725.662 123.598 725.027 123.02C724.392 122.441 723.697 121.871 722.942 121.31C722.531 121.004 721.991 120.655 721.322 120.265C720.705 119.805 720.071 119.44 719.42 119.169C718.769 118.898 718.11 118.781 717.444 118.818C716.777 118.855 716.214 119.182 715.755 119.8C715.347 120.348 715.282 121.366 715.562 122.852C715.91 124.39 716.328 126.192 716.815 128.259C717.37 130.377 717.901 132.743 718.408 135.357C718.983 138.022 719.233 140.765 719.159 143.587C719.153 146.46 718.729 149.394 717.886 152.389C717.112 155.436 715.653 158.4 713.51 161.281C711.266 164.299 708.668 166.789 705.718 168.75C702.819 170.642 699.6 171.818 696.063 172.277C692.645 172.718 688.95 172.314 684.978 171.064C680.955 169.884 676.783 167.686 672.461 164.472C669.855 162.533 667.521 160.585 665.462 158.627C663.42 156.788 661.669 155.06 660.209 153.441C658.475 151.619 656.963 149.855 655.674 148.15L670.98 127.571Z" fill="black"/>
<path fill-rule="evenodd" clip-rule="evenodd" d="M115.517 220.278C53.0886 294.534 15.4781 390.393 15.4781 495.055H10.3486C10.3486 389.142 48.4138 292.124 111.591 216.977L115.517 220.278ZM868.254 495.055C868.254 390.393 830.644 294.534 768.215 220.278L772.141 216.977C835.319 292.124 873.384 389.142 873.384 495.055H868.254Z" fill="black"/>
</svg>
